# xmcd
#
# Track frame offsets:
#	150
#	24135
#	57496
#	90068
#	112287
#	132838
#	155712
#	177212
#	196839
#	214304
#	234396
#	261275
#	278402
#	299398
#	318945
#
# Disc length: 4561
#
# Revision: 1
# Processed by: cddbd v1.5.1PL0 Copyright (c) Steve Scherf et al.
# Submitted via: CDex 1.51
# Normalized: r0:TDELIM( - ),TSWAP
#
DISCID=d011cf0f
DTITLE=Various Artist - All That Smooth Jazz - Disc Two
DYEAR=2004
DGENRE=Jazz
TTITLE0=Curtis Mayfield - Here But I'm Gone
TTITLE1=Grover Washington Jr - Winelight
TTITLE2=Terry Callier - African Violet
TTITLE3=Kenny Garrett - Delta Bali Blues
TTITLE4=Gabriela Anders - Wanting
TTITLE5=Euge Groove - Sneak A Peek
TTITLE6=Tarik Husseini - The Quiet Man
TTITLE7=Boney James and Rick Braun - Crazin' In The Grass (Can You Dig It? Vocal)
TTITLE8=Kirk Whalum - I Try
TTITLE9=Norman Brown - Just Chillin'
TTITLE10=Grover Washington Jr. Feat. Patti Labelle - The Best Is Yet To Come
TTITLE11=Euge Groove - Slam Dunk
TTITLE12=Donald Byrd - Loving You
TTITLE13=Jonathan Butler - Pata Pata
TTITLE14=Curtis Mayfield - Back To Living Again
EXTD=YEAR: 2004
EXTT0=
EXTT1=
EXTT2=
EXTT3=
EXTT4=
EXTT5=
EXTT6=
EXTT7=
EXTT8=
EXTT9=
EXTT10=
EXTT11=
EXTT12=
EXTT13=
EXTT14=
PLAYORDER=
